<svg viewBox="0 0 1200 630" xmlns="http://www.w3.org/2000/svg" xmlns:xlink="http://www.w3.org/1999/xlink"><linearGradient id="a" x1="0%" x2="100%" y1="0%" y2="100%"><stop offset="0" stop-color="#1a1a1a"/><stop offset="1" stop-color="#333"/></linearGradient><filter id="b"><feGaussianBlur result="coloredBlur" stdDeviation="3"/><feMerge><feMergeNode in="coloredBlur"/><feMergeNode in="SourceGraphic"/></feMerge></filter><path d="m0 0h1200v630h-1200z" fill="url(#a)"/><path d="m0 500h50v-100h50v50h50v-100h50v70h50v-120h50v180h50v-100h50v80h50v-140h50v120h50v-80h50v120h50v-140h50v120h50v-160h50v140h50v-60h50v80h50v-140h50v120h50v-80h50v120h100v150h-1200z" fill="#4a90a7" opacity=".1"/><g transform="translate(300 200)"><g fill="none"><path d="m50 150h30v-50h20v30h20v-50h20v40h20v-50h20v20h20v-40h20v60h20v-50h20v30h20v-50h20v80h20v-20h20v30h210" filter="url(#b)" stroke="#4a90a7" stroke-width="4"/><path d="m50 170q100-30 150 0 50 30 100 0 50-30 100 0 50 30 100 0 50-30 50 0" filter="url(#b)" stroke="#e67e22" stroke-width="4"/><path d="m50 190q100-30 150 0 50 30 100 0 50-30 100 0 50 30 100 0 50-30 50 0" opacity=".7" stroke="#e67e22" stroke-width="3"/><path d="m50 210q100-30 150 0 50 30 100 0 50-30 100 0 50 30 100 0 50-30 50 0" opacity=".4" stroke="#e67e22" stroke-width="2"/></g><text fill="#f7f7f7" filter="url(#b)" font-family="Arial, sans-serif" font-size="60" font-weight="bold" x="150" y="30">URBAN</text><text fill="#e67e22" filter="url(#b)" font-family="Arial, sans-serif" font-size="60" font-weight="bold" x="390" y="30">ECHO</text></g><text style="font-family:Arial, sans-serif;font-size:32;font-weight:300;fill:#f7f7f7;text-anchor:middle;opacity:.9" x="600" y="480">Premium Streetwear &amp; Urban Fashion</text><text fill="#e67e22" font-family="Arial, sans-serif" font-size="24" font-weight="400" text-anchor="middle" x="600" y="520">shopurbanecho.com</text><g fill="none" opacity=".3" stroke-width="2"><path d="m0 100q200-20 400 0 200 20 400 0 200-20 400 0" stroke="#e67e22"/><path d="m0 560q200-20 400 0 200 20 400 0 200-20 400 0" stroke="#4a90a7"/></g></svg>