<svg xmlns="http://www.w3.org/2000/svg" viewBox="0 0 240 60">
  <!-- Background - transparent -->

  <!-- Simplified Cityscape Silhouette -->
  <path d="M20,40 L26,40 L26,30 L32,30 L32,36 L38,36 L38,28 L44,28 L44,34 
          L50,34 L50,26 L56,26 L56,32 L62,32 L62,24 L68,24 L68,38 
          L74,38 L74,32 L80,32 L80,38 L86,38" fill="none" stroke="#4A90A7" stroke-width="1.5" />

  <!-- Simplified Soundwave/Echo Effect -->
  <path d="M20,46 Q53,40 86,46" fill="none" stroke="#E67E22" stroke-width="1.5" />
  <path d="M20,50 Q53,44 86,50" fill="none" stroke="#E67E22" stroke-width="1" opacity="0.7" />
  <path d="M20,54 Q53,48 86,54" fill="none" stroke="#E67E22" stroke-width="0.8" opacity="0.4" />

  <!-- Logo Text -->
  <text x="100" y="36" font-family="Arial, sans-serif" font-size="20" font-weight="bold" fill="#F7F7F7">URBAN</text>
  <text x="180" y="36" font-family="Arial, sans-serif" font-size="20" font-weight="bold" fill="#E67E22">ECHO</text>
</svg>


<svg xmlns="http://www.w3.org/2000/svg" viewBox="0 0 64 64">
  <!-- Background -->
  <rect width="64" height="64" fill="#333333" rx="8" ry="8" />

  <!-- Simplified Cityscape Silhouette -->
  <path d="M10,40 L16,40 L16,30 L22,30 L22,35 L28,35 L28,25 L34,25 L34,38 
          L40,38 L40,28 L46,28 L46,35 L52,35 L52,28" fill="none" stroke="#4A90A7" stroke-width="2" />

  <!-- Simplified Soundwave/Echo Effect -->
  <path d="M10,45 Q32,38 54,45" fill="none" stroke="#E67E22" stroke-width="2" />
  <path d="M10,50 Q32,43 54,50" fill="none" stroke="#E67E22" stroke-width="1.5" opacity="0.7" />
  <path d="M10,55 Q32,48 54,55" fill="none" stroke="#E67E22" stroke-width="1" opacity="0.4" />

  <!-- Letters U E -->
  <text x="18" y="20" font-family="Arial, sans-serif" font-size="14" font-weight="bold" fill="#F7F7F7">U</text>
  <text x="32" y="20" font-family="Arial, sans-serif" font-size="14" font-weight="bold" fill="#E67E22">E</text>
</svg>



<svg xmlns="http://www.w3.org/2000/svg" viewBox="0 0 120 40">
  <!-- Compact version for smaller spaces -->

  <!-- Simplified Cityscape Silhouette -->
  <path d="M5,25 L9,25 L9,18 L13,18 L13,22 L17,22 L17,16 L21,16 L21,20 
          L25,20 L25,15 L29,15 L29,19 L33,19 L33,14 L37,14 L37,23 
          L41,23 L41,18 L45,18 L45,23 L49,23" fill="none" stroke="#4A90A7" stroke-width="1.2" />

  <!-- Simplified Soundwave/Echo Effect -->
  <path d="M5,30 Q27,27 49,30" fill="none" stroke="#E67E22" stroke-width="1.2" />
  <path d="M5,33 Q27,30 49,33" fill="none" stroke="#E67E22" stroke-width="0.9" opacity="0.7" />
  <path d="M5,36 Q27,33 49,36" fill="none" stroke="#E67E22" stroke-width="0.6" opacity="0.4" />

  <!-- Logo Text -->
  <text x="55" y="18" font-family="Arial, sans-serif" font-size="10" font-weight="bold" fill="#F7F7F7">URBAN</text>
  <text x="55" y="30" font-family="Arial, sans-serif" font-size="10" font-weight="bold" fill="#E67E22">ECHO</text>
</svg>


<svg xmlns="http://www.w3.org/2000/svg" viewBox="0 0 600 300">
  <!-- Background -->
  <rect width="600" height="300" fill="#333333" rx="10" ry="10" />

  <!-- Cityscape Silhouette -->
  <path d="M50,200 L80,200 L80,150 L100,150 L100,180 L120,180 L120,130 L140,130 L140,170 
          L160,170 L160,120 L180,120 L180,140 L200,140 L200,100 L220,100 L220,160 
          L240,160 L240,110 L260,110 L260,140 L280,140 L280,90 L300,90 L300,170 
          L320,170 L320,150 L340,150 L340,180 L550,180" fill="none" stroke="#4A90A7" stroke-width="3" />

  <!-- Soundwave/Echo Effect -->
  <path d="M50,220 Q150,190 200,220 Q250,250 300,220 Q350,190 400,220 Q450,250 500,220 Q550,190 550,220" fill="none"
    stroke="#E67E22" stroke-width="3" />
  <path d="M50,240 Q150,210 200,240 Q250,270 300,240 Q350,210 400,240 Q450,270 500,240 Q550,210 550,240" fill="none"
    stroke="#E67E22" stroke-width="2" opacity="0.7" />
  <path d="M50,260 Q150,230 200,260 Q250,290 300,260 Q350,230 400,260 Q450,290 500,260 Q550,230 550,260" fill="none"
    stroke="#E67E22" stroke-width="1" opacity="0.4" />

  <!-- Logo Text -->
  <text x="150" y="50" font-family="Arial, sans-serif" font-size="40" font-weight="bold" fill="#F7F7F7">URBAN</text>
  <text x="320" y="50" font-family="Arial, sans-serif" font-size="40" font-weight="bold" fill="#E67E22">ECHO</text>
</svg>


<svg xmlns="http://www.w3.org/2000/svg" viewBox="0 0 600 300">
  <!-- Background -->
  <rect width="600" height="300" fill="#333333" rx="10" ry="10" />

  <!-- Geometric Echo Hexagons -->
  <polygon points="300,60 350,90 350,150 300,180 250,150 250,90" fill="none" stroke="#2C6E91" stroke-width="3" />
  <polygon points="300,70 340,95 340,145 300,170 260,145 260,95" fill="none" stroke="#2C6E91" stroke-width="2.5"
    opacity="0.8" />
  <polygon points="300,80 330,100 330,140 300,160 270,140 270,100" fill="none" stroke="#4A90A7" stroke-width="2"
    opacity="0.6" />
  <polygon points="300,90 320,105 320,135 300,150 280,135 280,105" fill="none" stroke="#4A90A7" stroke-width="1.5"
    opacity="0.4" />
  <polygon points="300,100 310,110 310,130 300,140 290,130 290,110" fill="none" stroke="#4A90A7" stroke-width="1"
    opacity="0.2" />

  <!-- Logo Text -->
  <text x="215" y="230" font-family="Arial, sans-serif" font-size="40" font-weight="bold" fill="#F7F7F7">URBAN</text>
  <text x="365" y="230" font-family="Arial, sans-serif" font-size="40" font-weight="bold" fill="#E67E22">ECHO</text>

  <!-- Echo Effect on E -->
  <text x="375" y="230" font-family="Arial, sans-serif" font-size="40" font-weight="bold" fill="#E67E22"
    opacity="0.6">E</text>
  <text x="385" y="230" font-family="Arial, sans-serif" font-size="40" font-weight="bold" fill="#E67E22"
    opacity="0.3">E</text>
</svg>


<svg xmlns="http://www.w3.org/2000/svg" viewBox="0 0 600 300">
  <!-- Background -->
  <rect width="600" height="300" fill="#333333" rx="10" ry="10" />

  <!-- Negative Space Buildings/Letters with updated colors -->
  <!-- U building -->
  <rect x="150" y="80" width="30" height="100" fill="#2C6E91" />
  <rect x="210" y="80" width="30" height="100" fill="#2C6E91" />
  <rect x="150" y="160" width="90" height="20" fill="#2C6E91" />

  <!-- R building -->
  <rect x="250" y="80" width="30" height="100" fill="#2C6E91" />
  <rect x="250" y="80" width="60" height="30" fill="#2C6E91" />
  <rect x="250" y="110" width="60" height="20" fill="#2C6E91" />
  <path d="M310,110 L310,130 L280,130 L310,180 L280,180 L250,130 L250,110 Z" fill="#2C6E91" />

  <!-- B building -->
  <rect x="330" y="80" width="30" height="100" fill="#4A90A7" />
  <rect x="330" y="80" width="60" height="30" fill="#4A90A7" />
  <rect x="330" y="110" width="60" height="20" fill="#4A90A7" />
  <rect x="330" y="130" width="60" height="30" fill="#4A90A7" />
  <rect x="330" y="160" width="60" height="20" fill="#4A90A7" />
  <rect x="390" y="90" width="15" height="20" fill="#4A90A7" />
  <rect x="390" y="140" width="15" height="20" fill="#4A90A7" />

  <!-- A building -->
  <path d="M410,180 L435,80 L460,180 L440,180 L435,160 L430,180 Z" fill="#4A90A7" />
  <rect x="425" y="130" width="20" height="15" fill="#4A90A7" />

  <!-- N building -->
  <rect x="470" y="80" width="30" height="100" fill="#4A90A7" />
  <path d="M470,80 L500,180 L530,180 L530,80 L500,80 L500,150 L480,100 L470,100 Z" fill="#4A90A7" />

  <!-- Echo Soundwaves -->
  <path d="M200,210 Q300,190 400,210" fill="none" stroke="#E67E22" stroke-width="3" />
  <path d="M220,230 Q300,210 380,230" fill="none" stroke="#E67E22" stroke-width="2.5" opacity="0.8" />
  <path d="M240,250 Q300,230 360,250" fill="none" stroke="#E67E22" stroke-width="2" opacity="0.6" />

  <!-- ECHO Text -->
  <text x="260" y="280" font-family="Arial, sans-serif" font-size="32" font-weight="bold" fill="#F7F7F7">ECHO</text>
</svg>



<svg xmlns="http://www.w3.org/2000/svg" viewBox="0 0 600 300">
  <!-- Background -->
  <rect width="600" height="300" fill="#333333" rx="10" ry="10" />

  <!-- Sound Circle Design -->
  <circle cx="300" cy="150" r="100" fill="none" stroke="#2C6E91" stroke-width="1" opacity="0.2" />
  <circle cx="300" cy="150" r="90" fill="none" stroke="#2C6E91" stroke-width="1" opacity="0.3" />
  <circle cx="300" cy="150" r="80" fill="none" stroke="#2C6E91" stroke-width="1" opacity="0.4" />
  <circle cx="300" cy="150" r="70" fill="none" stroke="#4A90A7" stroke-width="1" opacity="0.5" />
  <circle cx="300" cy="150" r="60" fill="none" stroke="#4A90A7" stroke-width="1" opacity="0.6" />
  <circle cx="300" cy="150" r="50" fill="none" stroke="#4A90A7" stroke-width="1" opacity="0.7" />

  <!-- Main Circle -->
  <circle cx="300" cy="150" r="40" fill="none" stroke="#E67E22" stroke-width="3" />

  <!-- Logo Text -->
  <text x="300" y="115" font-family="Arial, sans-serif" font-size="24" font-weight="bold" fill="#F7F7F7"
    text-anchor="middle">URBAN</text>
  <text x="300" y="195" font-family="Arial, sans-serif" font-size="24" font-weight="bold" fill="#E67E22"
    text-anchor="middle">ECHO</text>

  <!-- Sound Visualizer Lines -->
  <line x1="220" y1="150" x2="240" y2="150" stroke="#4A90A7" stroke-width="2" />
  <line x1="360" y1="150" x2="380" y2="150" stroke="#4A90A7" stroke-width="2" />

  <line x1="200" y1="150" x2="215" y2="150" stroke="#2C6E91" stroke-width="3" />
  <line x1="385" y1="150" x2="400" y2="150" stroke="#2C6E91" stroke-width="3" />

  <line x1="180" y1="150" x2="190" y2="150" stroke="#E67E22" stroke-width="4" />
  <line x1="410" y1="150" x2="420" y2="150" stroke="#E67E22" stroke-width="4" />
</svg>