<svg xmlns="http://www.w3.org/2000/svg" viewBox="0 0 240 60">
  <!-- Background - transparent -->

  <!-- Simplified Cityscape Silhouette -->
  <path d="M20,40 L26,40 L26,30 L32,30 L32,36 L38,36 L38,28 L44,28 L44,34 
          L50,34 L50,26 L56,26 L56,32 L62,32 L62,24 L68,24 L68,38 
          L74,38 L74,32 L80,32 L80,38 L86,38" fill="none" stroke="#4A90A7" stroke-width="1.5" />

  <!-- Simplified Soundwave/Echo Effect -->
  <path d="M20,46 Q53,40 86,46" fill="none" stroke="#E67E22" stroke-width="1.5" />
  <path d="M20,50 Q53,44 86,50" fill="none" stroke="#E67E22" stroke-width="1" opacity="0.7" />
  <path d="M20,54 Q53,48 86,54" fill="none" stroke="#E67E22" stroke-width="0.8" opacity="0.4" />

  <!-- Logo Text -->
  <text x="100" y="36" font-family="Arial, sans-serif" font-size="20" font-weight="bold" fill="#F7F7F7">URBAN</text>
  <text x="180" y="36" font-family="Arial, sans-serif" font-size="20" font-weight="bold" fill="#E67E22">ECHO</text>
</svg>